<?xml version="1.0" encoding="UTF-8"?><svg id="a" xmlns="http://www.w3.org/2000/svg" xmlns:xlink="http://www.w3.org/1999/xlink" viewBox="0 0 827.49 264.32"><defs><style>.g{fill:none;}.h{fill:url(#e);}.i{fill:url(#c);}.j{fill:#fff;}.k{clip-path:url(#d);}.l{clip-path:url(#f);}.m{clip-path:url(#b);}</style><clipPath id="b"><path class="g" d="M136.42,14.79l-.09,145.67,100.95,50S183.9,18.9,182.76,14.8h-18.72l2.03,12.04.08.03h-20l.05-.05-.66-12.03h-9.11Z"/></clipPath><linearGradient id="c" x1="186.81" y1="210.46" x2="186.81" y2="14.79" gradientUnits="userSpaceOnUse"><stop offset=".07" stop-color="#fff"/><stop offset="1" stop-color="#a6a8ab" stop-opacity=".3"/></linearGradient><clipPath id="d"><path class="j" d="M127.09,14.79l-.66,12.03.06.05h-19.98l.08-.03,2.04-12.04h-18.67s0,.02,0,.03h0l-54.54,195.64,100.95-50,.09-145.67h-9.34Z"/></clipPath><linearGradient id="e" x1="85.9" y1="210.46" x2="85.9" y2="14.79" gradientUnits="userSpaceOnUse"><stop offset=".08" stop-color="#fff"/><stop offset="1" stop-color="#a6a8ab" stop-opacity=".3"/></linearGradient><clipPath id="f"><path class="g" d="M35.38,210.46l-8,23c-.51,1.48-.28,3.12.63,4.4.9,1.27,2.37,2.03,3.94,2.03h208.74c1.57,0,3.04-.76,3.95-2.03.91-1.28,1.14-2.92.63-4.4l-7.99-23-100.95-50-100.95,50Z"/></clipPath></defs><g class="m"><rect class="i" x="136.33" y="14.79" width="100.95" height="195.67"/></g><path class="j" d="M127.09,14.79l-.66,12.03.06.05h-19.98l.08-.03,2.04-12.04h-18.67s0,.02,0,.03h0l-54.54,195.64,100.95-50,.09-145.67h-9.34Z"/><g class="k"><rect class="h" x="35.38" y="14.79" width="101.04" height="195.67"/></g><g class="l"><rect class="j" x="26.87" y="160.46" width="218.91" height="79.42"/></g><path class="j" d="M293.35,182.32c14.53,15.48,37.27,29.06,66.64,29.06s42.32-14.84,42.32-28.74c0-18.95-22.42-24.63-48.01-31.27-34.43-8.53-74.85-18.63-74.85-63.17,0-34.74,30.64-61.59,76.75-61.59,32.85,0,59.38,10.42,78.96,29.37l-21.16,27.48c-16.42-16.42-38.85-24-60.95-24s-35.69,10.42-35.69,26.21,21.48,21.79,46.43,28.11c34.74,8.84,76.11,19.58,76.11,65.38,0,35.06-24.63,65.06-81.48,65.06-38.85,0-66.96-13.58-85.59-33.48l20.53-28.42Z"/><path class="j" d="M605.07,148.53h-109.59v91.91h-36.95V29.78h36.95v86.22h109.59V29.78h36.95v210.66h-36.95v-91.91Z"/><path class="j" d="M727.29,184.22l-39.79,56.22h-36.95l55.9-78.33-52.74-74.22h37.27l36.32,51.79,36-51.79h37.27l-52.74,74.22,56.22,78.33h-37.27l-39.48-56.22Z"/></svg>