<?xml version="1.0" encoding="UTF-8"?><svg id="a" xmlns="http://www.w3.org/2000/svg" xmlns:xlink="http://www.w3.org/1999/xlink" viewBox="0 0 843.31 348.77"><defs><style>.h{fill:none;}.i{fill:url(#g);}.j{fill:url(#e);}.k{fill:url(#c);}.l{fill:#0f1324;}.m{clip-path:url(#d);}.n{clip-path:url(#f);}.o{clip-path:url(#b);}</style><clipPath id="b"><path class="h" d="M138.76,17.44l-.09,145.98,101.16,50.1S186.34,21.56,185.19,17.45h-18.75l2.04,12.06.08.03h-20.04l.05-.05-.66-12.06h-9.13Z"/></clipPath><linearGradient id="c" x1="3073.56" y1="-3782.9" x2="3077.99" y2="-3780.34" gradientTransform="translate(-310375.65 252785.96) rotate(-90) scale(82.13 -82.13)" gradientUnits="userSpaceOnUse"><stop offset=".51" stop-color="#0b2993"/><stop offset=".61" stop-color="#0934a3"/><stop offset=".81" stop-color="#0453cf"/><stop offset="1" stop-color="#0075ff"/></linearGradient><clipPath id="d"><path class="h" d="M129.4,17.44l-.66,12.06.06.05h-20.03l.08-.03,2.04-12.06h-18.71s0,.02,0,.03h0l-54.65,196.05,101.16-50.1.09-145.98h-9.36Z"/></clipPath><linearGradient id="e" x1="3079.97" y1="-3785.26" x2="3084.34" y2="-3782.74" gradientTransform="translate(-342160.72 278844.08) rotate(-90) scale(90.44 -90.44)" gradientUnits="userSpaceOnUse"><stop offset=".27" stop-color="#0b2993"/><stop offset=".41" stop-color="#073fb2"/><stop offset=".76" stop-color="#0075ff"/><stop offset=".96" stop-color="#153dc8"/></linearGradient><clipPath id="f"><path class="h" d="M37.51,213.52l-8.01,23.04c-.51,1.48-.28,3.12.63,4.41.9,1.27,2.37,2.03,3.95,2.03h209.18c1.57,0,3.05-.76,3.95-2.03.91-1.28,1.14-2.93.63-4.41l-8.01-23.04-101.16-50.1-101.16,50.1Z"/></clipPath><linearGradient id="g" x1="149.85" y1="266.64" x2="82.76" y2="-113.87" gradientUnits="userSpaceOnUse"><stop offset="0" stop-color="#0b2993"/><stop offset=".15" stop-color="#073fb2"/><stop offset=".53" stop-color="#0075ff"/></linearGradient></defs><g class="o"><rect class="k" x="138.67" y="17.44" width="101.16" height="196.08"/></g><g class="m"><rect class="j" x="37.51" y="17.44" width="101.25" height="196.08"/></g><g class="n"><rect class="i" x="28.98" y="163.42" width="219.37" height="79.59"/></g><path class="l" d="M295.59,184.97c14.53,15.48,37.27,29.06,66.64,29.06s42.32-14.84,42.32-28.74c0-18.95-22.42-24.63-48.01-31.27-34.43-8.53-74.85-18.63-74.85-63.17,0-34.74,30.64-61.59,76.75-61.59,32.85,0,59.38,10.42,78.96,29.37l-21.16,27.48c-16.42-16.42-38.85-24-60.95-24s-35.69,10.42-35.69,26.21,21.48,21.79,46.43,28.11c34.74,8.84,76.11,19.58,76.11,65.38,0,35.06-24.63,65.06-81.48,65.06-38.85,0-66.96-13.58-85.59-33.48l20.53-28.42Z"/><path class="l" d="M607.31,151.18h-109.59v91.91h-36.95V32.43h36.95v86.22h109.59V32.43h36.95v210.66h-36.95v-91.91Z"/><path class="l" d="M729.54,186.87l-39.79,56.22h-36.95l55.9-78.33-52.74-74.22h37.27l36.32,51.79,36-51.79h37.27l-52.74,74.22,56.22,78.33h-37.27l-39.48-56.22Z"/><path class="l" d="M278.63,288.21h14.74c7.04,0,10.96,4.83,10.96,10.51s-3.97,10.51-10.96,10.51h-8.85v12.52h-5.88v-33.54ZM292.56,293.39h-8.05v10.66h8.05c3.32,0,5.73-2.11,5.73-5.33s-2.41-5.33-5.73-5.33Z"/><path class="l" d="M306.09,309.59c0-6.94,4.78-12.72,12.47-12.72s12.52,5.78,12.52,12.72-4.73,12.77-12.52,12.77-12.47-5.78-12.47-12.77ZM325.6,309.59c0-4.28-2.51-8.05-7.04-8.05s-6.99,3.77-6.99,8.05,2.51,8.1,6.99,8.1,7.04-3.77,7.04-8.1Z"/><path class="l" d="M351.25,303.95l-5.63,17.8h-5.53l-7.54-24.29h5.48l5.13,17.65,5.78-17.65h4.63l5.78,17.65,5.13-17.65h5.48l-7.54,24.29h-5.53l-5.63-17.8Z"/><path class="l" d="M383.73,296.86c7.29,0,11.97,5.58,11.97,13.23v1.26h-18.76c.4,3.67,3.17,6.69,7.75,6.69,2.36,0,5.18-.96,6.89-2.67l2.41,3.47c-2.41,2.31-5.99,3.52-9.86,3.52-7.29,0-12.72-5.08-12.72-12.77,0-7.04,5.13-12.72,12.32-12.72ZM376.89,307.62h13.68c-.1-2.87-2.06-6.44-6.84-6.44-4.53,0-6.59,3.47-6.84,6.44Z"/><path class="l" d="M400.23,297.46h5.28v3.57c1.81-2.31,4.73-4.12,7.9-4.12v5.23c-.45-.1-1.01-.15-1.66-.15-2.21,0-5.18,1.51-6.24,3.22v16.54h-5.28v-24.29Z"/><path class="l" d="M427.78,296.86c7.29,0,11.97,5.58,11.97,13.23v1.26h-18.76c.4,3.67,3.17,6.69,7.75,6.69,2.36,0,5.18-.96,6.89-2.67l2.41,3.47c-2.41,2.31-5.99,3.52-9.86,3.52-7.29,0-12.72-5.08-12.72-12.77,0-7.04,5.13-12.72,12.32-12.72ZM420.94,307.62h13.68c-.1-2.87-2.06-6.44-6.84-6.44-4.53,0-6.59,3.47-6.84,6.44Z"/><path class="l" d="M461.38,318.44c-1.86,2.41-4.68,3.92-7.79,3.92-6.24,0-10.81-4.73-10.81-12.72s4.53-12.78,10.81-12.78c3.02,0,5.83,1.41,7.79,3.97v-12.62h5.28v33.54h-5.28v-3.32ZM461.38,304.81c-1.21-1.81-3.77-3.27-6.29-3.27-4.17,0-6.84,3.37-6.84,8.1s2.67,8.05,6.84,8.05c2.51,0,5.08-1.41,6.29-3.22v-9.66Z"/><path class="l" d="M485.01,288.21h5.28v12.62c1.91-2.56,4.73-3.97,7.79-3.97,6.24,0,10.76,4.93,10.76,12.78s-4.58,12.72-10.76,12.72c-3.17,0-5.93-1.51-7.79-3.92v3.32h-5.28v-33.54ZM496.53,317.68c4.22,0,6.89-3.32,6.89-8.05s-2.67-8.1-6.89-8.1c-2.46,0-5.08,1.51-6.24,3.32v9.61c1.16,1.81,3.77,3.22,6.24,3.22Z"/><path class="l" d="M515.28,326.94c1.66,0,2.77-.5,3.47-2.11l1.21-2.77-9.96-24.59h5.63l7.09,18.21,7.09-18.21h5.68l-11.72,28.67c-1.66,4.12-4.58,5.43-8.35,5.48-.75,0-2.21-.15-2.97-.35l.8-4.73c.55.25,1.41.4,2.01.4Z"/><path class="l" d="M551.59,312.5c2.31,2.46,5.93,4.63,10.61,4.63s6.74-2.36,6.74-4.58c0-3.02-3.57-3.92-7.64-4.98-5.48-1.36-11.92-2.97-11.92-10.06,0-5.53,4.88-9.81,12.22-9.81,5.23,0,9.46,1.66,12.57,4.68l-3.37,4.38c-2.62-2.62-6.19-3.82-9.71-3.82s-5.68,1.66-5.68,4.17,3.42,3.47,7.39,4.48c5.53,1.41,12.12,3.12,12.12,10.41,0,5.58-3.92,10.36-12.98,10.36-6.19,0-10.66-2.16-13.63-5.33l3.27-4.53Z"/><path class="l" d="M579.8,316.12v-14.03h-4.02v-4.63h4.02v-6.64h5.28v6.64h4.93v4.63h-4.93v12.72c0,1.66.8,2.87,2.31,2.87,1.01,0,1.96-.4,2.36-.86l1.26,3.97c-.96.91-2.51,1.56-4.98,1.56-4.07,0-6.24-2.21-6.24-6.24Z"/><path class="l" d="M594.08,297.46h5.28v3.57c1.81-2.31,4.73-4.12,7.9-4.12v5.23c-.45-.1-1.01-.15-1.66-.15-2.21,0-5.18,1.51-6.24,3.22v16.54h-5.28v-24.29Z"/><path class="l" d="M609.31,309.59c0-6.94,4.78-12.72,12.47-12.72s12.52,5.78,12.52,12.72-4.73,12.77-12.52,12.77-12.47-5.78-12.47-12.77ZM628.83,309.59c0-4.28-2.51-8.05-7.04-8.05s-6.99,3.77-6.99,8.05,2.51,8.1,6.99,8.1,7.04-3.77,7.04-8.1Z"/><path class="l" d="M655.33,306.57c0-3.77-1.91-5.03-4.88-5.03-2.72,0-5.03,1.61-6.24,3.27v16.95h-5.28v-24.29h5.28v3.32c1.61-1.91,4.73-3.92,8.55-3.92,5.23,0,7.85,2.82,7.85,7.79v17.1h-5.28v-15.19Z"/><path class="l" d="M668.9,324.17c1.96,2.26,4.48,3.12,7.69,3.12,3.47,0,7.19-1.61,7.19-6.59v-2.92c-1.86,2.41-4.63,4.02-7.8,4.02-6.19,0-10.76-4.48-10.76-12.47s4.53-12.47,10.76-12.47c3.07,0,5.83,1.41,7.8,3.97v-3.37h5.28v23.04c0,8.75-6.49,11.11-12.47,11.11-4.12,0-7.19-.9-10.16-3.62l2.46-3.82ZM683.79,304.81c-1.16-1.81-3.77-3.27-6.24-3.27-4.17,0-6.84,3.12-6.84,7.79s2.67,7.79,6.84,7.79c2.46,0,5.08-1.46,6.24-3.27v-9.05Z"/><path class="l" d="M711.65,306.47c0-3.77-1.96-4.93-4.93-4.93-2.67,0-4.98,1.61-6.24,3.27v16.95h-5.28v-33.54h5.28v12.57c1.61-1.91,4.78-3.92,8.6-3.92,5.23,0,7.85,2.72,7.85,7.7v17.2h-5.28v-15.29Z"/><path class="l" d="M721.55,309.59c0-6.94,4.78-12.72,12.47-12.72s12.52,5.78,12.52,12.72-4.73,12.77-12.52,12.77-12.47-5.78-12.47-12.77ZM741.07,309.59c0-4.28-2.51-8.05-7.04-8.05s-6.99,3.77-6.99,8.05,2.51,8.1,6.99,8.1,7.04-3.77,7.04-8.1Z"/><path class="l" d="M751.17,288.21h5.28v33.54h-5.28v-33.54Z"/><path class="l" d="M779.69,318.44c-1.86,2.41-4.68,3.92-7.8,3.92-6.24,0-10.81-4.73-10.81-12.72s4.53-12.78,10.81-12.78c3.02,0,5.83,1.41,7.8,3.97v-12.62h5.28v33.54h-5.28v-3.32ZM779.69,304.81c-1.21-1.81-3.77-3.27-6.29-3.27-4.17,0-6.84,3.37-6.84,8.1s2.67,8.05,6.84,8.05c2.51,0,5.08-1.41,6.29-3.22v-9.66Z"/><path class="l" d="M789.44,298.37c0-5.94,4.78-10.66,10.66-10.66s10.66,4.73,10.66,10.66-4.73,10.66-10.66,10.66-10.66-4.78-10.66-10.66ZM790.95,298.37c0,5.03,4.07,9.15,9.15,9.15s9.1-4.12,9.1-9.15-4.07-9.1-9.1-9.1-9.15,4.02-9.15,9.1ZM799.85,299.68h-2.16v4.83h-1.66v-12.22h4.98c2.06,0,3.92,1.46,3.92,3.72,0,2.72-2.41,3.62-3.12,3.62l3.27,4.88h-2.06l-3.17-4.83ZM797.69,293.74v4.43h3.32c1.06,0,2.21-.91,2.21-2.16,0-1.36-1.16-2.26-2.21-2.26h-3.32Z"/></svg>