<svg id="Layer_1" data-name="Layer 1" xmlns="http://www.w3.org/2000/svg" viewBox="0 0 791.9253 191.4366"><defs><style>.cls-1{fill:#060810;}</style></defs><title>stronghold-logo-full black</title><path class="cls-1" d="M75.2334,43.6059C69.542,37.7275,59.1065,32.415,49.62,32.415c-13.6621,0-19.1645,10.2421-19.1645,18.0219,0,25.9961,61.4736,16.3194,61.4736,59.3848,0,21.25-14.9917,39.4629-42.8809,39.4629-17.2661,0-32.6323-7.0186-44.5859-19.3516l13.2822-13.2822c7.59,7.7813,18.59,13.2822,29.22,13.2822,15.5546,0,22.3842-11.1924,22.3842-19.7295,0-25.2373-61.2812-14.8037-61.2812-59.1953,0-20.4931,13.2793-37.9492,39.0854-37.9492A58.7153,58.7153,0,0,1,88.7051,30.3266Z" transform="translate(-4.4624 -5.2826)"/><path class="cls-1" d="M97.08,62.1991h10.0537V43.2245h21.63V62.1991h19.1631v16.316H128.7642v39.4668c0,8.1572,4.9311,13.6562,12.7133,13.6562a12.4952,12.4952,0,0,0,6.45-1.5146v17.2627a24.8531,24.8531,0,0,1-10.4351,1.9023c-18.7861,0-30.3584-12.1455-30.3584-31.3066V78.5151H97.08Z" transform="translate(-4.4624 -5.2826)"/><path class="cls-1" d="M205.2168,61.25V79.4653a20.6081,20.6081,0,0,0-6.8306-.9532,22.7166,22.7166,0,0,0-19.1587,10.82v58.2452h-20.872V62.1991h20.872v8.7281c5.878-6.2608,12.8975-10.0547,20.6768-10.0547a50.3029,50.3029,0,0,1,5.3125.3779" transform="translate(-4.4624 -5.2826)"/><path class="cls-1" d="M254.5606,60.495c26.75,0,44.9648,18.022,44.9648,44.3941,0,26.3779-18.2148,44.3955-44.9648,44.3955-26.7549,0-44.9649-18.0176-44.9649-44.3955,0-26.3721,18.21-44.3941,44.9649-44.3941m0,70.1968c13.8486,0,23.332-10.4336,23.332-25.8027,0-15.3731-9.4834-25.8067-23.332-25.8067-13.8506,0-23.3379,10.4336-23.3379,25.8067,0,15.3691,9.4873,25.8027,23.3379,25.8027" transform="translate(-4.4624 -5.2826)"/><path class="cls-1" d="M331.917,62.1991V68.46a35.6823,35.6823,0,0,1,23.1494-7.97c19.541,0,31.8721,14.6094,31.8721,36.2373v50.8536H366.07V96.7279c0-10.4316-6.6386-17.6435-16.51-17.6435-7.585,0-13.6582,2.6572-17.6436,7.02v61.4766H311.05V62.1991Z" transform="translate(-4.4624 -5.2826)"/><path class="cls-1" d="M410.7051,146.4389c-6.6436-3.6055-9.4883-8.5371-9.4883-14.2315,0-5.88,3.2275-10.6211,10.06-14.2255-8.541-5.3155-12.9092-14.7979-12.9092-25.2354,0-19.5439,14.8037-32.2529,36.0547-32.2529,10.0527,0,18.5889,2.8457,24.66,7.7793,4.1768-4.9336,9.49-7.7793,15.1807-7.7793a22.3672,22.3672,0,0,1,5.124.3813V77.3783a16.8036,16.8036,0,0,0-3.9853-.57c-2.8457,0-5.3155,1.5186-7.4,3.9854a31.1446,31.1446,0,0,1,2.0849,11.3847c0,18.9727-14.413,31.8711-36.0439,31.8711-8.541,0-12.5293,3.23-12.5293,7.5938,0,4.5478,5.89,7.5869,15.5635,7.5869,25.4228,0,42.498,11.1973,42.498,27.6973,0,17.6455-19.3515,29.792-45.5322,29.792-25.2383,0-41.3594-11.3868-41.3594-27.6993,0-10.8193,7.2071-18.2168,18.0225-22.581m23.1455,34.5332c13.2812,0,24.0928-5.6914,24.0928-13.6611,0-7.211-8.3448-11.9551-20.8672-11.9551-13.4688,0-22.5791,5.5029-22.5791,13.664,0,7.2071,7.2109,11.9522,19.3535,11.9522m.7588-73.2383c8.9209,0,15.1758-6.4463,15.1758-15.5557s-6.2549-15.37-15.1758-15.37c-8.917,0-15.1748,6.26-15.1748,15.37s6.2578,15.5557,15.1748,15.5557" transform="translate(-4.4624 -5.2826)"/><path class="cls-1" d="M509.9063,5.2826V68.4633a35.6541,35.6541,0,0,1,23.1455-7.97c19.54,0,31.874,14.6064,31.874,36.2363v50.8477h-20.87V96.73c0-10.4355-6.64-17.6426-16.5078-17.6426-7.587,0-13.6582,2.6553-17.6416,7.02v61.4707H489.0342V5.2826Z" transform="translate(-4.4624 -5.2826)"/><path class="cls-1" d="M620.8516,60.495c26.7509,0,44.9609,18.022,44.9609,44.3941,0,26.3779-18.21,44.3955-44.9609,44.3955-26.7549,0-44.9688-18.0176-44.9688-44.3955,0-26.3721,18.2139-44.3941,44.9688-44.3941m0,70.1968c13.85,0,23.333-10.4336,23.333-25.8027,0-15.3731-9.4834-25.8067-23.333-25.8067-13.8565,0-23.3418,10.4336-23.3418,25.8067,0,15.3691,9.4853,25.8027,23.3418,25.8027" transform="translate(-4.4624 -5.2826)"/><path class="cls-1" d="M707.584,147.5776c-1.7109.7558-6.0752.9482-8.7295.9482-14.2285,0-21.8193-9.2959-21.8193-22.959V5.2826h20.8681V125c0,5.6914,3.9854,8.917,9.6807,8.917Z" transform="translate(-4.4624 -5.2826)"/><path class="cls-1" d="M775.5127,147.5776v-6.0713a37.9142,37.9142,0,0,1-23.3291,7.7783c-23.91,0-39.8457-18.0176-39.8457-44.3955,0-26.3721,17.4512-44.3941,43.6377-44.3941a43.5316,43.5316,0,0,1,19.5371,4.3623V5.2826h20.875v142.295ZM757.874,130.6918c7.3985,0,13.6573-2.4707,17.6387-6.8271V85.3481c-3.9814-3.794-10.24-6.2657-17.6387-6.2657-14.04,0-23.9043,10.4336-23.9043,25.8067,0,15.3691,9.8643,25.8027,23.9043,25.8027" transform="translate(-4.4624 -5.2826)"/></svg>