<?xml version="1.0" encoding="UTF-8"?><svg id="a" xmlns="http://www.w3.org/2000/svg" viewBox="0 0 1382.14 367.94"><defs><style>.b{fill:none;stroke:#0b2993;stroke-miterlimit:10;stroke-width:2px;}.c{fill:#0b2993;}</style></defs><path class="c" d="M144.33,89.26c-9.25-9.55-26.21-18.19-41.63-18.19-22.21,0-31.15,16.65-31.15,29.29,0,42.25,99.92,26.53,99.92,96.52,0,34.54-24.37,64.14-69.7,64.14-28.06,0-53.04-11.41-72.47-31.45l21.59-21.59c12.34,12.65,30.22,21.59,47.49,21.59,25.28,0,36.38-18.19,36.38-32.07,0-41.02-99.6-24.06-99.6-96.21,0-33.31,21.58-61.68,63.53-61.68,25.59,0,50.27,10.49,67.54,28.07l-21.9,21.58Z"/><path class="c" d="M179.84,119.48h16.34v-30.84h35.16v30.84h31.15v26.52h-31.15v64.15c0,13.26,8.01,22.2,20.66,22.2,3.7,0,7.4-.61,10.48-2.46v28.06c-5.24,2.47-11.41,3.09-16.96,3.09-30.53,0-49.34-19.74-49.34-50.89v-64.15h-16.34v-26.52Z"/><path class="c" d="M355.6,117.93v29.61c-3.4-1.23-7.4-1.55-11.1-1.55-13.26,0-24.36,7.1-31.14,17.59v94.67h-33.92V119.48h33.92v14.19c9.55-10.18,20.96-16.34,33.61-16.34,3.08,0,5.55.31,8.63.61"/><path class="c" d="M435.81,116.71c43.48,0,73.08,29.29,73.08,72.16s-29.61,72.16-73.08,72.16-73.08-29.29-73.08-72.16,29.6-72.16,73.08-72.16M435.81,230.8c22.51,0,37.92-16.96,37.92-41.94s-15.41-41.95-37.92-41.95-37.93,16.96-37.93,41.95,15.42,41.94,37.93,41.94"/><path class="c" d="M561.54,119.48v10.18c10.18-8.33,22.82-12.95,37.63-12.95,31.76,0,51.8,23.75,51.8,58.9v82.66h-33.92v-82.66c0-16.96-10.79-28.68-26.83-28.68-12.33,0-22.2,4.32-28.68,11.41v99.92h-33.92V119.48h33.92Z"/><path class="c" d="M689.6,256.4c-10.8-5.86-15.42-13.88-15.42-23.13s5.25-17.26,16.35-23.12c-13.88-8.64-20.98-24.05-20.98-41.02,0-31.77,24.06-52.42,58.6-52.42,16.34,0,30.21,4.63,40.08,12.64,6.79-8.02,15.43-12.64,24.67-12.64,3.09,0,5.55,0,8.33.62v26.82c-2.17-.62-4.94-.93-6.48-.93-4.63,0-8.64,2.47-12.03,6.48,2.16,5.55,3.39,11.72,3.39,18.5,0,30.84-23.43,51.8-58.58,51.8-13.88,0-20.36,5.25-20.36,12.34s9.57,12.33,25.3,12.33c41.32,0,69.08,18.2,69.08,45.02,0,28.68-31.45,48.42-74.01,48.42s-67.22-18.51-67.22-45.02c0-17.59,11.71-29.61,29.29-36.7M727.22,312.53c21.59,0,39.16-9.25,39.16-22.2,0-11.72-13.56-19.43-33.92-19.43-21.89,0-36.7,8.94-36.7,22.21,0,11.71,11.72,19.43,31.46,19.43M728.45,193.49c14.5,0,24.67-10.48,24.67-25.28s-10.17-24.98-24.67-24.98-24.66,10.17-24.66,24.98,10.17,25.28,24.66,25.28"/><path class="c" d="M850.84,26.97v102.69c10.17-8.33,22.82-12.95,37.62-12.95,31.76,0,51.81,23.74,51.81,58.9v82.65h-33.92v-82.65c0-16.96-10.79-28.68-26.83-28.68-12.33,0-22.2,4.32-28.67,11.41v99.91h-33.93V26.97h33.93Z"/><path class="c" d="M1031.17,116.71c43.48,0,73.08,29.29,73.08,72.16s-29.6,72.16-73.08,72.16-73.09-29.29-73.09-72.16,29.6-72.16,73.09-72.16M1031.17,230.8c22.51,0,37.92-16.96,37.92-41.94s-15.41-41.95-37.92-41.95-37.94,16.96-37.94,41.95,15.42,41.94,37.94,41.94"/><path class="c" d="M1172.14,258.25c-2.78,1.23-9.87,1.54-14.19,1.54-23.13,0-35.46-15.11-35.46-37.32V26.97h33.92v194.59c0,9.25,6.48,14.49,15.73,14.49v22.2Z"/><path class="c" d="M1282.55,258.25v-9.87c-10.47,8.02-23.43,12.64-37.92,12.64-38.86,0-64.76-29.29-64.76-72.16s28.36-72.16,70.93-72.16c11.72,0,22.51,2.47,31.76,7.09V26.97h33.93v231.28h-33.93ZM1253.88,230.8c12.03,0,22.2-4.02,28.67-11.1v-62.6c-6.47-6.17-16.64-10.18-28.67-10.18-22.82,0-38.85,16.96-38.85,41.95s16.03,41.94,38.85,41.94"/><circle class="b" cx="1344.02" cy="243.65" r="14.6"/><path class="c" d="M1340.15,237.94h4.63c.76,0,1.39.11,1.89.34.94.43,1.41,1.24,1.41,2.41,0,.61-.13,1.11-.38,1.5s-.6.7-1.06.94c.4.16.7.37.9.64s.31.69.34,1.28l.05,1.37c.01.39.05.68.1.87.08.32.23.53.44.62v.23h-1.69c-.05-.09-.08-.2-.11-.34s-.05-.41-.07-.8l-.08-1.7c-.03-.67-.27-1.11-.72-1.34-.26-.12-.66-.19-1.21-.19h-3.05v4.37h-1.38v-10.18ZM1344.63,242.61c.63,0,1.13-.13,1.49-.39s.55-.73.55-1.4c0-.73-.26-1.22-.77-1.48-.28-.14-.64-.21-1.1-.21h-3.28v3.48h3.1Z"/></svg>