<?xml version="1.0" encoding="UTF-8"?><svg id="Layer_1" xmlns="http://www.w3.org/2000/svg" xmlns:xlink="http://www.w3.org/1999/xlink" viewBox="0 0 1389.11 282.39"><defs><style>.cls-1,.cls-2{fill:none;}.cls-3{fill:url(#linear-gradient-2);}.cls-4{fill:url(#linear-gradient);}.cls-5{clip-path:url(#clippath-1);}.cls-6{clip-path:url(#clippath-2);}.cls-7{fill:#fff;}.cls-8{clip-path:url(#clippath);}.cls-2{stroke:#fff;stroke-miterlimit:10;stroke-width:2px;}</style><clipPath id="clippath"><path class="cls-1" d="M109.3,0l-.09,145.67,100.95,50S156.78,4.11,155.64.01h-18.72l2.03,12.04.08.03h-20l.05-.05-.66-12.03h-9.11Z"/></clipPath><linearGradient id="linear-gradient" x1="159.69" y1="195.67" x2="159.69" y2="0" gradientUnits="userSpaceOnUse"><stop offset=".07" stop-color="#fff"/><stop offset="1" stop-color="#a6a8ab" stop-opacity=".3"/></linearGradient><clipPath id="clippath-1"><path class="cls-7" d="M99.97,0l-.66,12.03.06.05h-19.98l.08-.03L81.49.01h-18.67s0,.02,0,.03h0L8.26,195.67l100.95-50,.09-145.67h-9.34Z"/></clipPath><linearGradient id="linear-gradient-2" x1="58.78" y1="195.67" x2="58.78" y2="0" gradientUnits="userSpaceOnUse"><stop offset=".08" stop-color="#fff"/><stop offset="1" stop-color="#a6a8ab" stop-opacity=".3"/></linearGradient><clipPath id="clippath-2"><path class="cls-1" d="M8.26,195.67L.27,218.67c-.51,1.48-.28,3.12.63,4.4.9,1.27,2.37,2.03,3.94,2.03h208.74c1.57,0,3.04-.76,3.95-2.03.91-1.28,1.14-2.92.63-4.4l-7.99-23-100.95-50L8.26,195.67Z"/></clipPath></defs><g class="cls-8"><rect class="cls-4" x="109.21" y="0" width="100.95" height="195.67"/></g><path class="cls-7" d="M99.97,0l-.66,12.03.06.05h-19.98l.08-.03L81.49.01h-18.67s0,.02,0,.03h0L8.26,195.67l100.95-50,.09-145.67h-9.34Z"/><g class="cls-5"><rect class="cls-3" x="8.26" width="101.04" height="195.67"/></g><g class="cls-6"><rect class="cls-7" x="-.25" y="145.67" width="218.91" height="79.42"/></g><path class="cls-7" d="M361.89,72.07c-7.82-8.07-22.15-15.37-35.18-15.37-18.77,0-26.32,14.07-26.32,24.76,0,35.71,84.44,22.42,84.44,81.57,0,29.19-20.59,54.21-58.9,54.21-23.72,0-44.82-9.64-61.24-26.58l18.24-18.24c10.43,10.69,25.54,18.24,40.14,18.24,21.37,0,30.75-15.37,30.75-27.1,0-34.67-84.18-20.33-84.18-81.31,0-28.15,18.24-52.13,53.69-52.13,21.63,0,42.48,8.86,57.08,23.72l-18.51,18.24Z"/><path class="cls-7" d="M391.9,97.61h13.81v-26.06h29.71v26.06h26.32v22.41h-26.32v54.21c0,11.2,6.77,18.76,17.46,18.76,3.12,0,6.25-.52,8.86-2.08v23.71c-4.43,2.08-9.64,2.61-14.33,2.61-25.81,0-41.7-16.68-41.7-43v-54.21h-13.81v-22.41Z"/><path class="cls-7" d="M540.44,96.3v25.02c-2.87-1.04-6.25-1.31-9.38-1.31-11.2,0-20.59,6-26.32,14.86v80.01h-28.67v-117.28h28.67v11.99c8.07-8.6,17.72-13.81,28.4-13.81,2.61,0,4.69.26,7.3.52"/><path class="cls-7" d="M608.22,95.26c36.74,0,61.76,24.76,61.76,60.98s-25.02,60.98-61.76,60.98-61.76-24.75-61.76-60.98,25.01-60.98,61.76-60.98M608.22,191.69c19.02,0,32.05-14.33,32.05-35.44s-13.03-35.45-32.05-35.45-32.06,14.33-32.06,35.45,13.03,35.44,32.06,35.44"/><path class="cls-7" d="M714.48,97.61v8.6c8.6-7.04,19.29-10.95,31.8-10.95,26.84,0,43.78,20.07,43.78,49.78v69.85h-28.67v-69.85c0-14.33-9.12-24.24-22.68-24.24-10.42,0-18.76,3.65-24.24,9.64v84.45h-28.66v-117.28h28.66Z"/><path class="cls-7" d="M822.7,213.32c-9.13-4.95-13.03-11.73-13.03-19.55s4.43-14.59,13.82-19.54c-11.73-7.3-17.73-20.33-17.73-34.66,0-26.85,20.33-44.3,49.53-44.3,13.81,0,25.53,3.91,33.87,10.69,5.74-6.78,13.04-10.69,20.85-10.69,2.61,0,4.69,0,7.04.52v22.67c-1.83-.52-4.17-.78-5.47-.78-3.91,0-7.3,2.09-10.17,5.47,1.83,4.69,2.86,9.9,2.86,15.64,0,26.06-19.8,43.78-49.51,43.78-11.73,0-17.21,4.44-17.21,10.43s8.09,10.42,21.38,10.42c34.92,0,58.38,15.38,58.38,38.05,0,24.24-26.58,40.92-62.54,40.92s-56.81-15.64-56.81-38.05c0-14.86,9.9-25.02,24.76-31.02M854.5,260.76c18.24,0,33.09-7.82,33.09-18.77,0-9.91-11.46-16.42-28.66-16.42-18.5,0-31.02,7.56-31.02,18.77,0,9.9,9.91,16.42,26.58,16.42M855.54,160.15c12.25,0,20.85-8.85,20.85-21.37s-8.59-21.11-20.85-21.11-20.84,8.6-20.84,21.11,8.6,21.37,20.84,21.37"/><path class="cls-7" d="M958.97,19.42v86.79c8.6-7.04,19.28-10.95,31.79-10.95,26.84,0,43.78,20.06,43.78,49.78v69.85h-28.67v-69.85c0-14.33-9.12-24.23-22.68-24.23-10.42,0-18.76,3.65-24.23,9.64v84.44h-28.67V19.42h28.67Z"/><path class="cls-7" d="M1111.37,95.26c36.75,0,61.76,24.76,61.76,60.98s-25.01,60.98-61.76,60.98-61.77-24.75-61.77-60.98,25.02-60.98,61.77-60.98M1111.37,191.69c19.02,0,32.05-14.33,32.05-35.44s-13.03-35.45-32.05-35.45-32.06,14.33-32.06,35.45,13.03,35.44,32.06,35.44"/><path class="cls-7" d="M1230.5,214.88c-2.35,1.04-8.35,1.3-11.99,1.3-19.54,0-29.97-12.77-29.97-31.54V19.42h28.66v164.45c0,7.82,5.47,12.25,13.3,12.25v18.76Z"/><path class="cls-7" d="M1323.81,214.88v-8.34c-8.85,6.78-19.8,10.68-32.05,10.68-32.84,0-54.73-24.75-54.73-60.98s23.97-60.98,59.94-60.98c9.9,0,19.02,2.09,26.84,5.99V19.42h28.67v195.46h-28.67ZM1299.58,191.69c10.16,0,18.76-3.39,24.23-9.38v-52.91c-5.47-5.21-14.07-8.61-24.23-8.61-19.29,0-32.84,14.33-32.84,35.45s13.55,35.44,32.84,35.44"/><circle class="cls-2" cx="1375.77" cy="202.54" r="12.34"/><path class="cls-7" d="M1372.49,197.72h3.91c.64,0,1.18.1,1.59.29.79.37,1.19,1.04,1.19,2.03,0,.52-.11.94-.32,1.27s-.51.59-.89.79c.34.14.59.32.76.54s.26.58.28,1.08l.04,1.15c.01.33.04.57.08.73.07.27.2.45.38.53v.19h-1.43c-.04-.07-.07-.17-.09-.29s-.04-.34-.06-.68l-.07-1.44c-.03-.56-.23-.94-.61-1.13-.22-.11-.56-.16-1.02-.16h-2.58v3.69h-1.17v-8.61ZM1376.27,201.66c.53,0,.95-.11,1.26-.33s.46-.61.46-1.18c0-.61-.22-1.03-.65-1.25-.23-.12-.54-.18-.93-.18h-2.77v2.94h2.62Z"/></svg>