<?xml version="1.0" encoding="UTF-8"?><svg id="a" xmlns="http://www.w3.org/2000/svg" xmlns:xlink="http://www.w3.org/1999/xlink" viewBox="0 0 512.1 515.82"><defs><style>.g{fill:none;}.h{fill:url(#e);}.i{fill:url(#c);}.j{fill:#fff;}.k{clip-path:url(#d);}.l{clip-path:url(#f);}.m{clip-path:url(#b);}</style><clipPath id="b"><path class="g" d="M259.15,31.79l-.18,289.7,200.76,99.43S353.58,39.96,351.31,31.81h-37.22l4.05,23.94.15.06h-39.78l.09-.09-1.32-23.93h-18.12Z"/></clipPath><linearGradient id="c" x1="359.35" y1="420.93" x2="359.35" y2="31.8" gradientUnits="userSpaceOnUse"><stop offset=".07" stop-color="#fff"/><stop offset="1" stop-color="#a6a8ab" stop-opacity=".3"/></linearGradient><clipPath id="d"><path class="j" d="M240.59,31.79l-1.32,23.93.12.09h-39.74l.15-.06,4.05-23.94h-37.14s0,.03,0,.05h-.02L58.22,420.93l200.75-99.43.18-289.7h-18.57Z"/></clipPath><linearGradient id="e" x1="158.69" y1="420.93" x2="158.69" y2="31.79" gradientUnits="userSpaceOnUse"><stop offset=".08" stop-color="#fff"/><stop offset="1" stop-color="#a6a8ab" stop-opacity=".3"/></linearGradient><clipPath id="f"><path class="g" d="M58.22,420.93l-15.9,45.73c-1.02,2.94-.55,6.2,1.26,8.75,1.79,2.53,4.71,4.04,7.84,4.04h415.12c3.12,0,6.04-1.51,7.85-4.04,1.8-2.55,2.27-5.81,1.25-8.75l-15.9-45.73-200.76-99.43-200.75,99.43Z"/></clipPath></defs><g class="m"><rect class="i" x="258.97" y="31.8" width="200.76" height="389.13"/></g><path class="j" d="M240.59,31.79l-1.32,23.93.12.09h-39.74l.15-.06,4.05-23.94h-37.14s0,.03,0,.05h-.02L58.22,420.93l200.75-99.43.18-289.7h-18.57Z"/><g class="k"><rect class="h" x="58.22" y="31.79" width="200.93" height="389.13"/></g><g class="l"><rect class="j" x="41.3" y="321.49" width="435.35" height="157.95"/></g></svg>