<svg width="628" height="98" viewBox="0 0 628 98" fill="none" xmlns="http://www.w3.org/2000/svg">
<g clip-path="url(#clip0_2_8783)">
<path d="M3.55 68H9.4V55.55H18.2C25.15 55.55 29.1 50.75 29.1 45.1C29.1 39.45 25.2 34.65 18.2 34.65H3.55V68ZM23.1 45.1C23.1 48.3 20.7 50.4 17.4 50.4H9.4V39.8H17.4C20.7 39.8 23.1 41.9 23.1 45.1ZM43.9875 68.6C51.7375 68.6 56.4375 62.85 56.4375 55.9C56.4375 49 51.7375 43.25 43.9875 43.25C36.3375 43.25 31.5875 49 31.5875 55.9C31.5875 62.85 36.3375 68.6 43.9875 68.6ZM43.9875 63.95C39.5375 63.95 37.0375 60.2 37.0375 55.9C37.0375 51.65 39.5375 47.9 43.9875 47.9C48.4875 47.9 50.9875 51.65 50.9875 55.9C50.9875 60.2 48.4875 63.95 43.9875 63.95ZM82.7996 68H88.2996L95.7996 43.85H90.3496L85.2496 61.4L79.4996 43.85H74.8996L69.1496 61.4L64.0496 43.85H58.5996L66.0996 68H71.5996L77.1996 50.3L82.7996 68ZM97.9449 55.9C97.9449 63.55 103.345 68.6 110.595 68.6C114.445 68.6 117.995 67.4 120.395 65.1L117.995 61.65C116.295 63.35 113.495 64.3 111.145 64.3C106.595 64.3 103.845 61.3 103.445 57.65H122.095V56.4C122.095 48.8 117.445 43.25 110.195 43.25C103.045 43.25 97.9449 48.9 97.9449 55.9ZM110.195 47.55C114.945 47.55 116.895 51.1 116.995 53.95H103.395C103.645 51 105.695 47.55 110.195 47.55ZM127.277 68H132.527V51.55C133.577 49.85 136.527 48.35 138.727 48.35C139.377 48.35 139.927 48.4 140.377 48.5V43.3C137.227 43.3 134.327 45.1 132.527 47.4V43.85H127.277V68ZM143.111 55.9C143.111 63.55 148.511 68.6 155.761 68.6C159.611 68.6 163.161 67.4 165.561 65.1L163.161 61.65C161.461 63.35 158.661 64.3 156.311 64.3C151.761 64.3 149.011 61.3 148.611 57.65H167.261V56.4C167.261 48.8 162.611 43.25 155.361 43.25C148.211 43.25 143.111 48.9 143.111 55.9ZM155.361 47.55C160.111 47.55 162.061 51.1 162.161 53.95H148.561C148.811 51 150.861 47.55 155.361 47.55ZM189.443 68H194.693V34.65H189.443V47.2C187.493 44.65 184.693 43.25 181.693 43.25C175.443 43.25 170.943 48.15 170.943 55.95C170.943 63.9 175.493 68.6 181.693 68.6C184.793 68.6 187.593 67.1 189.443 64.7V68ZM189.443 60.75C188.243 62.55 185.693 63.95 183.193 63.95C179.043 63.95 176.393 60.6 176.393 55.95C176.393 51.25 179.043 47.9 183.193 47.9C185.693 47.9 188.243 49.35 189.443 51.15V60.75ZM214.338 68H219.588V64.7C221.438 67.1 224.188 68.6 227.338 68.6C233.488 68.6 238.038 63.9 238.038 55.95C238.038 48.15 233.538 43.25 227.338 43.25C224.288 43.25 221.488 44.65 219.588 47.2V34.65H214.338V68ZM219.588 60.75V51.2C220.738 49.4 223.338 47.9 225.788 47.9C229.988 47.9 232.638 51.25 232.638 55.95C232.638 60.65 229.988 63.95 225.788 63.95C223.338 63.95 220.738 62.55 219.588 60.75ZM243.14 72.75L242.34 77.45C243.09 77.65 244.54 77.8 245.29 77.8C249.04 77.75 251.94 76.45 253.59 72.35L265.24 43.85H259.59L252.54 61.95L245.49 43.85H239.89L249.79 68.3L248.59 71.05C247.89 72.65 246.79 73.15 245.14 73.15C244.54 73.15 243.69 73 243.14 72.75Z" fill="#060810"/>
<rect x="274" y="2" width="354" height="101"/>
</g>
<defs>
<clipPath id="clip0_2_8783">
<rect width="628" height="98" fill="white"/>
</clipPath>
</defs>
</svg>
